<!-- Generated by IcoMoon.io -->
<svg version="1.1" xmlns="http://www.w3.org/2000/svg" width="1024" height="1024" viewBox="0 0 1024 1024">
<title></title>
<g id="icomoon-ignore">
</g>
<path fill="#000" d="M718.906 277.733c-9.12-95.229-88.404-169.946-186.041-169.946-75.534 0-140.185 44.828-170.006 109.15-8.978-2.843-18.323-4.8-28.238-4.8-51.863 0-93.913 42.070-93.913 93.913 0 10.313 2.063 20.058 5.138 29.303-40.343 23.521-67.749 66.684-67.749 116.75 0 74.92 60.729 135.655 135.655 135.655v0.038l375.646-0.038c86.469 0 156.525-70.059 156.525-156.525 0-76.299-54.699-139.688-127.015-153.504zM689.401 546.023v0.038h-375.646c-51.774-0.038-93.913-42.158-93.913-93.954 0-33.398 17.589-63.549 47.042-80.709 28.613-16.424 30.578-19.681 18.578-49.193-2.023-6.068-3.008-11.349-3.008-16.133 0-28.778 23.393-52.178 52.178-52.178 0 0 13.688-0.983 28.238 4.8 23.934 9.533 26.543 0.413 37.855-24.188 23.934-51.608 75.804-84.984 132.145-84.984 75.129 0 137.245 56.829 144.505 132.19 2.572 29.888 2.572 29.888 33.705 36.998 53.968 10.313 93.099 57.639 93.099 112.51 0 63.296-51.488 114.79-114.79 114.79z"></path>
</svg>
